<svg version="1.1" id="Layer_1" xmlns="http://www.w3.org/2000/svg" xmlns:xlink="http://www.w3.org/1999/xlink" x="0px" y="0px"
	 width="100%" viewBox="0 0 64 64" enable-background="new 0 0 64 64" xml:space="preserve">
<path fill="#000000" opacity="1.000000" stroke="none" 
	d="
M1.360977,29.350273 
	C1.000000,25.307091 1.000000,21.614182 1.000000,17.460636 
	C2.598060,14.874392 4.943494,14.697444 7.293747,14.676134 
	C24.428537,14.520774 41.563793,14.511902 58.698299,14.690883 
	C60.657509,14.711348 62.747894,14.629290 64.639023,16.649727 
	C65.000000,20.692909 65.000000,24.385818 65.000000,28.539364 
	C63.401936,31.125603 61.056507,31.302561 58.706249,31.323868 
	C41.571457,31.479229 24.436195,31.488094 7.301687,31.309116 
	C5.342485,31.288651 3.252101,31.370707 1.360977,29.350273 
z"/>
<path fill="#000000" opacity="1.000000" stroke="none" 
	d="
M1.360975,49.350269 
	C1.000000,45.307091 1.000000,41.614182 1.000000,37.460636 
	C2.598060,34.874390 4.943498,34.697441 7.293750,34.676132 
	C24.428541,34.520775 41.563801,34.511909 58.698307,34.690887 
	C60.657513,34.711349 62.747894,34.629292 64.639023,36.649727 
	C65.000000,40.692909 65.000000,44.385818 65.000000,48.539364 
	C63.401943,51.125614 61.056503,51.302555 58.706249,51.323864 
	C41.571457,51.479221 24.436197,51.488087 7.301689,51.309109 
	C5.342484,51.288651 3.252098,51.370701 1.360975,49.350269 
z"/>
<path fill="#000000" opacity="1.000000" stroke="none" 
	d="
M1.360976,9.350271 
	C0.999999,1.000000 0.999999,1.000000 8.901491,1.000000 
	C25.962465,1.000000 43.027191,1.194519 60.081829,0.865796 
	C64.447937,0.781641 65.784744,1.957984 65.016899,6.026038 
	C64.896149,6.665808 65.000000,7.347971 65.000000,8.505266 
	C63.401939,11.125606 61.056507,11.302558 58.706249,11.323867 
	C41.571453,11.479227 24.436192,11.488098 7.301681,11.309114 
	C5.342479,11.288651 3.252099,11.370699 1.360976,9.350271 
z"/>
<path fill="#3B82F6" opacity="1.000000" stroke="none" 
	d="
M1.000000,9.444164 
	C20.245592,9.000011 39.491207,8.987514 58.736740,9.020565 
	C60.540386,9.023663 62.401417,8.617986 64.574356,9.224954 
	C65.000000,11.370557 65.000000,13.741115 65.000000,16.555836 
	C45.754463,16.999985 26.508905,17.012486 7.263425,16.979420 
	C5.459712,16.976320 3.598599,17.381977 1.425627,16.774998 
	C1.000000,14.629442 1.000000,12.258885 1.000000,9.444164 
z"/>
<path fill="#3B82F6" opacity="1.000000" stroke="none" 
	d="
M65.000000,36.555836 
	C45.754463,36.999989 26.508905,37.012489 7.263424,36.979420 
	C5.459712,36.976322 3.598599,37.381973 1.425627,36.774998 
	C1.000000,34.629444 1.000000,32.258884 1.000000,29.444164 
	C20.245590,29.000011 39.491203,28.987514 58.736736,29.020565 
	C60.540382,29.023661 62.401417,28.617989 64.574356,29.224953 
	C65.000000,31.370558 65.000000,33.741116 65.000000,36.555836 
z"/>
<path fill="#3B82F6" opacity="1.000000" stroke="none" 
	d="
M1.000000,49.444164 
	C20.245592,49.000011 39.491207,48.987514 58.736740,49.020565 
	C60.540386,49.023663 62.401417,48.617981 64.574356,49.224953 
	C65.000000,51.370556 65.000000,53.741116 65.000000,56.555836 
	C63.401943,59.125614 61.056503,59.302555 58.706249,59.323864 
	C41.571457,59.479218 24.436197,59.488094 7.301689,59.309116 
	C5.342484,59.288658 3.252098,59.370701 1.360975,57.350269 
	C1.000000,54.629444 1.000000,52.258884 1.000000,49.444164 
z"/>
<path fill="#000000" opacity="1.000000" stroke="none" 
	d="
M1.000000,57.494736 
	C20.246191,56.999977 39.492405,57.012489 58.738537,56.979374 
	C60.542080,56.976273 62.403492,57.382000 64.574997,56.773357 
	C65.000000,64.999992 65.000000,64.999992 57.098507,65.000000 
	C40.037529,65.000000 22.972803,64.805473 5.918163,65.134209 
	C1.552034,65.218369 0.215281,64.041985 0.983099,59.973953 
	C1.103852,59.334183 1.000000,58.652027 1.000000,57.494736 
z"/>
</svg>