<svg width="537" height="464" viewBox="0 0 537 464" fill="none" xmlns="http://www.w3.org/2000/svg">
<g clip-path="url(#clip0_6_201)">
<path opacity="0.24" d="M511.204 352.876C510.962 355.882 510.494 358.858 509.803 361.772C508.25 368.534 505.891 375.018 502.791 381.04C484.873 416.889 449.774 437.613 414.47 446.091C379.166 454.569 342.694 452.707 306.671 454.602C258.005 457.128 209.47 466.494 160.804 463.422C137.735 461.942 114.866 457.679 92.5762 450.705C-14.9053 450.705 37.6449 262.54 43.8169 191.205C46.478 160.472 49.5967 128.262 64.9005 102.839C82.9961 72.7698 115.042 57.762 146.396 51.2429C177.751 44.7238 210.039 45.0557 241.179 37.5625C292.114 25.3164 341.35 -7.70715 392.742 1.65934C443.163 10.8974 484.051 65.8867 484.023 124.441C484.023 165.514 467.767 206.352 477.095 247.254C485.209 282.783 514.323 314.233 511.204 352.876Z" fill="#4B97CE"/>
<path opacity="0.24" d="M509.766 361.771C508.213 368.533 505.853 375.017 502.754 381.04C484.836 416.889 449.737 437.613 414.432 446.091C379.128 454.569 342.657 452.707 306.634 454.601C257.968 457.128 209.432 466.494 160.766 463.422C137.71 461.939 114.854 457.676 92.5762 450.705C77.6365 446.049 46.7675 440 37.729 424.083C32.0799 414.181 31.1929 395.63 30.9594 380.001C34.3395 380.612 37.701 381.532 40.6515 381.853C50.6518 382.924 60.7734 383.031 70.8016 383.384C92.0471 384.162 113.299 384.683 134.557 384.947C219.215 385.982 303.811 382.792 388.344 375.377C428.905 371.816 469.379 367.281 509.766 361.771Z" fill="#4B97CE"/>
<path d="M363.161 236.153H339.267V405.082H363.161V236.153Z" fill="#4B97CE"/>
<path d="M363.161 236.153H339.267V405.082H363.161V236.153Z" fill="url(#paint0_linear_6_201)"/>
<path d="M419.335 184.3V251.236H255.633V184.3C255.633 179.716 256.422 175.176 257.953 170.94C259.485 166.705 261.73 162.857 264.559 159.617C267.389 156.377 270.748 153.808 274.444 152.058C278.14 150.307 282.101 149.409 286.101 149.414H388.867C396.942 149.411 404.687 153.085 410.4 159.627C416.114 166.168 419.327 175.043 419.335 184.3Z" fill="#4B97CE"/>
<path d="M286.222 155.216C293.213 155.216 299.918 158.4 304.861 164.067C309.804 169.734 312.581 177.42 312.581 185.435V250.84H259.863V185.435C259.863 177.42 262.64 169.734 267.583 164.067C272.527 158.4 279.231 155.216 286.222 155.216Z" fill="url(#paint1_linear_6_201)"/>
<path d="M419.344 184.29V251.225H318.501V180.372C315.485 161.864 304.122 153.354 294.766 149.436H388.886C396.956 149.43 404.697 153.098 410.409 159.634C416.12 166.17 419.334 175.038 419.344 184.29Z" fill="url(#paint2_linear_6_201)"/>
<path d="M314.281 241.634H207.257C204.941 241.634 203.064 243.784 203.064 246.435C203.064 249.087 204.941 251.236 207.257 251.236H314.281C316.596 251.236 318.473 249.087 318.473 246.435C318.473 243.784 316.596 241.634 314.281 241.634Z" fill="#4B97CE"/>
<path d="M314.281 241.634H207.257C204.941 241.634 203.064 243.784 203.064 246.435C203.064 249.087 204.941 251.236 207.257 251.236H314.281C316.596 251.236 318.473 249.087 318.473 246.435C318.473 243.784 316.596 241.634 314.281 241.634Z" fill="url(#paint3_linear_6_201)"/>
<path opacity="0.24" d="M287.922 390.267C274.018 393.125 260.218 396.807 246.165 398.37C237.033 399.387 226.958 399.912 220.348 407.191C218.766 408.725 217.719 410.86 217.397 413.207C217.024 418.249 221.608 421.77 225.717 423.612C237.687 429.039 250.703 430.591 263.561 431.533C284.495 433.053 305.485 433.085 326.466 433.107L388.96 433.171C407.401 433.171 427.878 432.314 441.1 417.553C443.714 414.63 446.02 411.034 446.469 406.848C447.197 400.126 442.734 393.789 437.365 390.973C428.028 386.092 414.087 387.109 403.928 385.814C390.719 384.144 377.457 383.22 364.142 383.041C338.593 382.694 313.073 385.113 287.922 390.267Z" fill="#4B97CE"/>
<path d="M375.515 194.459C375.291 195.315 374.581 197.917 374.441 198.859L372.2 208.343C372.1 208.758 372.05 209.186 372.051 209.617C372.039 209.761 372.055 209.906 372.098 210.041C372.141 210.177 372.209 210.301 372.299 210.403C372.388 210.505 372.495 210.583 372.614 210.633C372.732 210.682 372.859 210.7 372.984 210.687C373.847 210.621 374.67 210.247 375.337 209.617C376.321 208.603 377.101 207.356 377.622 205.962C378.142 204.568 378.392 203.061 378.353 201.545C378.393 199.708 378.019 197.891 377.269 196.267C376.518 194.644 375.416 193.269 374.067 192.275C372.023 191.012 369.722 190.391 367.401 190.477C359.539 190.477 354.03 196.461 354.03 204.917C354.03 213.117 358.978 218.491 366.467 218.491C368.395 218.491 370.313 218.174 372.163 217.549C373.642 217.032 375.048 216.271 376.336 215.29L378.605 219.047C377.164 220.13 375.59 220.964 373.937 221.52C371.378 222.427 368.715 222.888 366.037 222.89C360.79 222.89 356.7 221.178 353.749 217.806C352.334 216.134 351.223 214.156 350.481 211.988C349.739 209.819 349.38 207.503 349.426 205.174C349.372 202.718 349.746 200.273 350.526 197.984C351.307 195.696 352.479 193.609 353.974 191.847C357.4 187.919 361.901 185.992 367.681 185.992C376.355 185.992 382.536 192.414 382.536 201.321C382.569 203.22 382.273 205.108 381.666 206.876C381.059 208.643 380.152 210.255 378.997 211.618C377.167 213.789 374.665 215.047 372.032 215.119C371.419 215.169 370.805 215.043 370.245 214.751C369.686 214.46 369.199 214.012 368.829 213.449C368.63 213.046 368.518 212.595 368.502 212.132C367.913 212.999 367.153 213.694 366.285 214.161C365.417 214.627 364.465 214.853 363.507 214.819C359.819 214.819 357.475 211.661 357.475 206.791C357.475 199.576 361.611 193.592 366.56 193.592C368.642 193.592 369.688 194.191 370.697 195.99L371.07 194.491L375.515 194.459ZM367.839 207.144C368.74 205.101 369.246 202.859 369.324 200.571C369.324 198.816 368.465 197.628 367.167 197.628C365.869 197.628 364.45 198.698 363.516 200.7C362.599 202.683 362.088 204.879 362.022 207.123C362.022 209.381 362.769 210.58 364.189 210.58C365.608 210.58 366.906 209.317 367.839 207.144Z" fill="#4B97CE"/>
<path d="M151.672 144.865C151.448 140.412 151.905 135.744 150.309 131.677C148.785 128.206 146.257 125.451 143.156 123.884C140.074 122.342 136.865 121.159 133.576 120.351C125.125 117.858 116.815 114.773 108.692 111.113C109.514 117.772 114.295 122.76 118.693 127.17C117.695 127.421 116.746 127.878 115.891 128.519C115.471 128.849 115.136 129.302 114.919 129.831C114.702 130.36 114.613 130.945 114.659 131.527C114.849 132.357 115.252 133.103 115.817 133.668C117.654 135.77 119.961 137.251 122.484 137.95L115.639 141.161C115.309 141.271 115.02 141.505 114.818 141.825C114.519 142.435 114.92 143.173 115.359 143.666C118.646 147.348 123.903 146.963 128.431 146.331C126.201 147.549 124.228 149.31 122.652 151.491C122.54 151.61 122.453 151.757 122.398 151.92C122.343 152.083 122.321 152.259 122.334 152.433C122.437 152.85 122.876 152.99 123.268 153.054C127.29 153.7 131.389 152.997 135.07 151.031C133.988 152.01 133.146 153.293 132.624 154.756C132.546 154.92 132.506 155.104 132.506 155.291C132.506 155.478 132.546 155.662 132.624 155.826C132.812 156.026 133.059 156.137 133.315 156.137C136.606 156.505 139.897 155.417 142.512 153.097C142.624 155.794 144.622 157.999 146.854 158.877C149.131 159.583 151.509 159.762 153.847 159.402C158.516 159.027 155.715 155.944 154.118 153.664C152.55 151.079 151.698 148.013 151.672 144.865Z" fill="#4B97CE"/>
<path d="M151.672 144.865C151.448 140.412 151.905 135.744 150.309 131.677C148.785 128.206 146.257 125.451 143.156 123.884C140.074 122.342 136.865 121.159 133.576 120.351C125.125 117.858 116.815 114.773 108.692 111.113C109.514 117.772 114.295 122.76 118.693 127.17C117.695 127.421 116.746 127.878 115.891 128.519C115.471 128.849 115.136 129.302 114.919 129.831C114.702 130.36 114.613 130.945 114.659 131.527C114.849 132.357 115.252 133.103 115.817 133.668C117.654 135.77 119.961 137.251 122.484 137.95L115.639 141.161C115.309 141.271 115.02 141.505 114.818 141.825C114.519 142.435 114.92 143.173 115.359 143.666C118.646 147.348 123.903 146.963 128.431 146.331C126.201 147.549 124.228 149.31 122.652 151.491C122.54 151.61 122.453 151.757 122.398 151.92C122.343 152.083 122.321 152.259 122.334 152.433C122.437 152.85 122.876 152.99 123.268 153.054C127.29 153.7 131.389 152.997 135.07 151.031C133.988 152.01 133.146 153.293 132.624 154.756C132.546 154.92 132.506 155.104 132.506 155.291C132.506 155.478 132.546 155.662 132.624 155.826C132.812 156.026 133.059 156.137 133.315 156.137C136.606 156.505 139.897 155.417 142.512 153.097C142.624 155.794 144.622 157.999 146.854 158.877C149.131 159.583 151.509 159.762 153.847 159.402C158.516 159.027 155.715 155.944 154.118 153.664C152.55 151.079 151.698 148.013 151.672 144.865Z" fill="url(#paint4_linear_6_201)"/>
<path d="M144.725 144.522C144.576 141.482 144.884 138.292 143.791 135.52C142.755 133.136 141.024 131.243 138.898 130.168C136.795 129.116 134.605 128.305 132.362 127.748C126.586 126.048 120.908 123.938 115.359 121.433C115.91 125.982 119.15 129.386 122.185 132.383C121.519 132.564 120.887 132.88 120.317 133.315C120.029 133.539 119.799 133.849 119.651 134.21C119.504 134.572 119.443 134.972 119.477 135.37C119.603 135.935 119.877 136.443 120.261 136.826C121.52 138.259 123.095 139.273 124.818 139.759L120.149 141.964C119.92 142.04 119.719 142.202 119.58 142.424C119.374 142.842 119.654 143.345 119.953 143.677C122.203 146.203 125.798 145.935 128.917 145.496C127.393 146.333 126.045 147.538 124.967 149.029C124.89 149.11 124.831 149.21 124.794 149.321C124.757 149.433 124.742 149.552 124.752 149.671C124.818 149.95 125.117 150.046 125.369 150.089C128.118 150.538 130.922 150.058 133.436 148.708C132.698 149.38 132.123 150.257 131.765 151.256C131.681 151.502 131.606 151.812 131.765 152.016C131.827 152.083 131.9 152.136 131.98 152.171C132.06 152.206 132.146 152.222 132.232 152.219C134.482 152.475 136.734 151.736 138.525 150.153C138.628 151.07 138.963 151.932 139.489 152.632C140.015 153.332 140.709 153.84 141.485 154.092C143.042 154.573 144.667 154.696 146.266 154.456C149.487 154.199 147.526 152.09 146.452 150.528C145.362 148.771 144.76 146.678 144.725 144.522Z" fill="#4B97CE"/>
<path d="M144.725 144.522C144.576 141.482 144.884 138.292 143.791 135.52C142.755 133.136 141.024 131.243 138.898 130.168C136.795 129.116 134.605 128.305 132.362 127.748C126.586 126.048 120.908 123.938 115.359 121.433C115.91 125.982 119.15 129.386 122.185 132.383C121.519 132.564 120.887 132.88 120.317 133.315C120.029 133.539 119.799 133.849 119.651 134.21C119.504 134.572 119.443 134.972 119.477 135.37C119.603 135.935 119.877 136.443 120.261 136.826C121.52 138.259 123.095 139.273 124.818 139.759L120.149 141.964C119.92 142.04 119.719 142.202 119.58 142.424C119.374 142.842 119.654 143.345 119.953 143.677C122.203 146.203 125.798 145.935 128.917 145.496C127.393 146.333 126.045 147.538 124.967 149.029C124.89 149.11 124.831 149.21 124.794 149.321C124.757 149.433 124.742 149.552 124.752 149.671C124.818 149.95 125.117 150.046 125.369 150.089C128.118 150.538 130.922 150.058 133.436 148.708C132.698 149.38 132.123 150.257 131.765 151.256C131.681 151.502 131.606 151.812 131.765 152.016C131.827 152.083 131.9 152.136 131.98 152.171C132.06 152.206 132.146 152.222 132.232 152.219C134.482 152.475 136.734 151.736 138.525 150.153C138.628 151.07 138.963 151.932 139.489 152.632C140.015 153.332 140.709 153.84 141.485 154.092C143.042 154.573 144.667 154.696 146.266 154.456C149.487 154.199 147.526 152.09 146.452 150.528C145.362 148.771 144.76 146.678 144.725 144.522Z" fill="url(#paint5_linear_6_201)"/>
<path d="M214.521 134.738C214.745 130.285 214.288 125.618 215.875 121.55C217.399 118.074 219.931 115.315 223.037 113.747C226.12 112.208 229.329 111.025 232.617 110.214C241.065 107.721 249.372 104.635 257.491 100.976C256.679 107.624 251.936 112.612 247.5 117.033C248.499 117.284 249.449 117.745 250.302 118.392C250.725 118.716 251.064 119.167 251.281 119.695C251.498 120.223 251.586 120.809 251.534 121.39C251.354 122.222 250.953 122.971 250.386 123.531C248.546 125.629 246.24 127.11 243.719 127.812L250.554 131.024C250.889 131.135 251.182 131.373 251.385 131.698C251.684 132.308 251.273 133.047 250.843 133.529C247.547 137.222 242.29 136.836 237.724 136.194C239.954 137.42 241.925 139.183 243.504 141.364C243.619 141.48 243.707 141.627 243.761 141.791C243.814 141.956 243.832 142.132 243.812 142.306C243.719 142.713 243.28 142.852 242.878 142.917C238.857 143.564 234.759 142.866 231.076 140.904C232.163 141.881 233.009 143.165 233.532 144.629C233.614 144.792 233.657 144.977 233.657 145.165C233.657 145.352 233.614 145.537 233.532 145.7C233.441 145.801 233.332 145.88 233.213 145.931C233.095 145.983 232.968 146.006 232.841 145.999C229.551 146.368 226.261 145.285 223.644 142.97C223.541 145.668 221.533 147.873 219.311 148.751C217.032 149.447 214.656 149.622 212.318 149.264C207.593 148.9 210.45 145.807 212.047 143.527C213.774 141.086 214.362 137.778 214.521 134.738Z" fill="#4B97CE"/>
<path d="M214.521 134.738C214.745 130.285 214.288 125.618 215.875 121.55C217.399 118.074 219.931 115.315 223.037 113.747C226.12 112.208 229.329 111.025 232.617 110.214C241.065 107.721 249.372 104.635 257.491 100.976C256.679 107.624 251.936 112.612 247.5 117.033C248.499 117.284 249.449 117.745 250.302 118.392C250.725 118.716 251.064 119.167 251.281 119.695C251.498 120.223 251.586 120.809 251.534 121.39C251.354 122.222 250.953 122.971 250.386 123.531C248.546 125.629 246.24 127.11 243.719 127.812L250.554 131.024C250.889 131.135 251.182 131.373 251.385 131.698C251.684 132.308 251.273 133.047 250.843 133.529C247.547 137.222 242.29 136.836 237.724 136.194C239.954 137.42 241.925 139.183 243.504 141.364C243.619 141.48 243.707 141.627 243.761 141.791C243.814 141.956 243.832 142.132 243.812 142.306C243.719 142.713 243.28 142.852 242.878 142.917C238.857 143.564 234.759 142.866 231.076 140.904C232.163 141.881 233.009 143.165 233.532 144.629C233.614 144.792 233.657 144.977 233.657 145.165C233.657 145.352 233.614 145.537 233.532 145.7C233.441 145.801 233.332 145.88 233.213 145.931C233.095 145.983 232.968 146.006 232.841 145.999C229.551 146.368 226.261 145.285 223.644 142.97C223.541 145.668 221.533 147.873 219.311 148.751C217.032 149.447 214.656 149.622 212.318 149.264C207.593 148.9 210.45 145.807 212.047 143.527C213.774 141.086 214.362 137.778 214.521 134.738Z" fill="url(#paint6_linear_6_201)"/>
<path d="M221.468 134.396C221.617 131.356 221.309 128.166 222.402 125.383C223.442 123.002 225.171 121.11 227.295 120.03C229.398 118.981 231.588 118.174 233.831 117.622C239.605 115.911 245.284 113.798 250.834 111.295C250.274 115.845 247.034 119.26 243.999 122.257C244.665 122.432 245.298 122.744 245.866 123.177C246.155 123.402 246.385 123.712 246.535 124.073C246.684 124.434 246.747 124.835 246.716 125.233C246.587 125.802 246.31 126.314 245.922 126.699C244.666 128.134 243.09 129.145 241.366 129.622L246.034 131.837C246.261 131.909 246.459 132.068 246.595 132.287C246.8 132.705 246.52 133.218 246.231 133.55C243.98 136.066 240.385 135.798 237.267 135.37C238.79 136.203 240.135 137.409 241.207 138.902C241.286 138.981 241.347 139.081 241.385 139.193C241.422 139.305 241.435 139.426 241.422 139.545C241.357 139.823 241.058 139.919 240.806 139.962C238.057 140.405 235.255 139.925 232.738 138.581C233.481 139.25 234.059 140.128 234.419 141.129C234.474 141.244 234.502 141.373 234.502 141.504C234.502 141.635 234.474 141.763 234.419 141.878C234.356 141.948 234.281 142.003 234.2 142.04C234.118 142.077 234.031 142.095 233.943 142.092C231.694 142.34 229.448 141.597 227.659 140.016C227.554 140.933 227.218 141.795 226.693 142.497C226.167 143.198 225.474 143.709 224.699 143.966C223.139 144.448 221.51 144.568 219.909 144.319C216.687 144.073 218.658 141.953 219.731 140.401C220.819 138.642 221.423 136.551 221.468 134.396Z" fill="#4B97CE"/>
<path d="M221.468 134.396C221.617 131.356 221.309 128.166 222.402 125.383C223.442 123.002 225.171 121.11 227.295 120.03C229.398 118.981 231.588 118.174 233.831 117.622C239.605 115.911 245.284 113.798 250.834 111.295C250.274 115.845 247.034 119.26 243.999 122.257C244.665 122.432 245.298 122.744 245.866 123.177C246.155 123.402 246.385 123.712 246.535 124.073C246.684 124.434 246.747 124.835 246.716 125.233C246.587 125.802 246.31 126.314 245.922 126.699C244.666 128.134 243.09 129.145 241.366 129.622L246.034 131.837C246.261 131.909 246.459 132.068 246.595 132.287C246.8 132.705 246.52 133.218 246.231 133.55C243.98 136.066 240.385 135.798 237.267 135.37C238.79 136.203 240.135 137.409 241.207 138.902C241.286 138.981 241.347 139.081 241.385 139.193C241.422 139.305 241.435 139.426 241.422 139.545C241.357 139.823 241.058 139.919 240.806 139.962C238.057 140.405 235.255 139.925 232.738 138.581C233.481 139.25 234.059 140.128 234.419 141.129C234.474 141.244 234.502 141.373 234.502 141.504C234.502 141.635 234.474 141.763 234.419 141.878C234.356 141.948 234.281 142.003 234.2 142.04C234.118 142.077 234.031 142.095 233.943 142.092C231.694 142.34 229.448 141.597 227.659 140.016C227.554 140.933 227.218 141.795 226.693 142.497C226.167 143.198 225.474 143.709 224.699 143.966C223.139 144.448 221.51 144.568 219.909 144.319C216.687 144.073 218.658 141.953 219.731 140.401C220.819 138.642 221.423 136.551 221.468 134.396Z" fill="url(#paint7_linear_6_201)"/>
<path d="M217.994 146.851L148.049 155.151L152.512 204.578L222.457 196.277L217.994 146.851Z" fill="#4B97CE"/>
<path d="M222.458 196.268L152.512 204.564L148.049 155.141L219.274 146.053L222.458 196.268Z" fill="url(#paint8_linear_6_201)"/>
<path d="M148.049 155.141L186.827 191.804L218.321 147.541L148.049 155.141Z" fill="url(#paint9_linear_6_201)"/>
<path d="M220.152 157.571C225.561 157.571 229.946 152.544 229.946 146.342C229.946 140.14 225.561 135.113 220.152 135.113C214.742 135.113 210.357 140.14 210.357 146.342C210.357 152.544 214.742 157.571 220.152 157.571Z" fill="#4B97CE"/>
<path d="M220.348 157.721C225.757 157.721 230.142 152.694 230.142 146.492C230.142 140.29 225.757 135.263 220.348 135.263C214.938 135.263 210.553 140.29 210.553 146.492C210.553 152.694 214.938 157.721 220.348 157.721Z" fill="url(#paint10_linear_6_201)"/>
<mask id="mask0_6_201" style="mask-type:luminance" maskUnits="userSpaceOnUse" x="250" y="155" width="63" height="96">
<path d="M250.432 237.534L312.647 250.583V185.178C312.637 177.171 309.855 169.496 304.913 163.838C299.971 158.18 293.272 155.002 286.288 155.002C271.721 155.002 257.715 171.765 257.715 188.454L250.432 237.534Z" fill="white"/>
</mask>
<g mask="url(#mask0_6_201)">
<path d="M349.559 203.014L286.627 190.785L280.051 235.26L342.983 247.489L349.559 203.014Z" fill="#4B97CE"/>
<path d="M342.965 247.511L280.022 235.276L286.605 190.809L350.827 202.702L342.965 247.511Z" fill="url(#paint11_linear_6_201)"/>
<path d="M286.605 190.809L312.74 233.681L349.678 203.74L286.605 190.809Z" fill="url(#paint12_linear_6_201)"/>
<path d="M322.868 174.278L276.893 165.344L272.089 197.84L318.064 206.774L322.868 174.278Z" fill="#4B97CE"/>
<path d="M318.053 206.791L272.076 197.852L276.885 165.364L323.795 174.056L318.053 206.791Z" fill="url(#paint13_linear_6_201)"/>
<path d="M276.885 165.364L295.98 196.686L322.955 174.816L276.885 165.364Z" fill="url(#paint14_linear_6_201)"/>
</g>
</g>
<defs>
<linearGradient id="paint0_linear_6_201" x1="351.835" y1="382.977" x2="349.479" y2="202.869" gradientUnits="userSpaceOnUse">
<stop stop-color="#010101" stop-opacity="0"/>
<stop offset="0.95" stop-color="#010101"/>
</linearGradient>
<linearGradient id="paint1_linear_6_201" x1="259.863" y1="203.065" x2="312.591" y2="203.065" gradientUnits="userSpaceOnUse">
<stop stop-color="#010101" stop-opacity="0"/>
<stop offset="0.95" stop-color="#010101"/>
</linearGradient>
<linearGradient id="paint2_linear_6_201" x1="359.735" y1="147.926" x2="347.194" y2="333.952" gradientUnits="userSpaceOnUse">
<stop stop-color="#010101" stop-opacity="0"/>
<stop offset="0.95" stop-color="#010101"/>
</linearGradient>
<linearGradient id="paint3_linear_6_201" x1="260.18" y1="234.922" x2="261.75" y2="258.19" gradientUnits="userSpaceOnUse">
<stop stop-color="#010101" stop-opacity="0"/>
<stop offset="0.95" stop-color="#010101"/>
</linearGradient>
<linearGradient id="paint4_linear_6_201" x1="107.124" y1="151.255" x2="143.272" y2="133.476" gradientUnits="userSpaceOnUse">
<stop stop-color="white" stop-opacity="0"/>
<stop offset="0.95" stop-color="white"/>
</linearGradient>
<linearGradient id="paint5_linear_6_201" x1="143.268" y1="121.144" x2="126.057" y2="139.688" gradientUnits="userSpaceOnUse">
<stop stop-color="white" stop-opacity="0"/>
<stop offset="0.95" stop-color="white"/>
</linearGradient>
<linearGradient id="paint6_linear_6_201" x1="259.06" y1="141.129" x2="222.911" y2="123.34" gradientUnits="userSpaceOnUse">
<stop stop-color="white" stop-opacity="0"/>
<stop offset="0.95" stop-color="white"/>
</linearGradient>
<linearGradient id="paint7_linear_6_201" x1="222.915" y1="111.017" x2="240.135" y2="129.55" gradientUnits="userSpaceOnUse">
<stop stop-color="white" stop-opacity="0"/>
<stop offset="0.95" stop-color="white"/>
</linearGradient>
<linearGradient id="paint8_linear_6_201" x1="186.014" y1="139.159" x2="182.984" y2="250.585" gradientUnits="userSpaceOnUse">
<stop stop-color="white" stop-opacity="0"/>
<stop offset="0.95" stop-color="white"/>
</linearGradient>
<linearGradient id="paint9_linear_6_201" x1="181.897" y1="141.927" x2="189.062" y2="181.954" gradientUnits="userSpaceOnUse">
<stop stop-color="white" stop-opacity="0"/>
<stop offset="0.95" stop-color="white"/>
</linearGradient>
<linearGradient id="paint10_linear_6_201" x1="219.862" y1="146.942" x2="229.505" y2="140.193" gradientUnits="userSpaceOnUse">
<stop stop-color="white" stop-opacity="0"/>
<stop offset="0.95" stop-color="white"/>
</linearGradient>
<linearGradient id="paint11_linear_6_201" x1="322.235" y1="186.573" x2="302.881" y2="250.911" gradientUnits="userSpaceOnUse">
<stop stop-color="white" stop-opacity="0"/>
<stop offset="0.95" stop-color="white"/>
</linearGradient>
<linearGradient id="paint12_linear_6_201" x1="319.022" y1="188.602" x2="314.118" y2="225.245" gradientUnits="userSpaceOnUse">
<stop stop-color="white" stop-opacity="0"/>
<stop offset="0.95" stop-color="white"/>
</linearGradient>
<linearGradient id="paint13_linear_6_201" x1="302.915" y1="162.275" x2="288.773" y2="209.277" gradientUnits="userSpaceOnUse">
<stop stop-color="white" stop-opacity="0"/>
<stop offset="0.95" stop-color="white"/>
</linearGradient>
<linearGradient id="paint14_linear_6_201" x1="300.559" y1="163.754" x2="296.98" y2="190.525" gradientUnits="userSpaceOnUse">
<stop stop-color="white" stop-opacity="0"/>
<stop offset="0.95" stop-color="white"/>
</linearGradient>
<clipPath id="clip0_6_201">
<rect width="537" height="464" fill="white"/>
</clipPath>
</defs>
</svg>
