<!DOCTYPE svg PUBLIC "-//W3C//DTD SVG 1.1//EN" "http://www.w3.org/Graphics/SVG/1.1/DTD/svg11.dtd">
<!-- Uploaded to: SVG Repo, www.svgrepo.com, Transformed by: SVG Repo Mixer Tools -->
<svg fill="#3b82f6" version="1.1" id="Capa_1" xmlns="http://www.w3.org/2000/svg" xmlns:xlink="http://www.w3.org/1999/xlink" width="800px" height="800px" viewBox="0 0 956.199 956.199" xml:space="preserve">
<g id="SVGRepo_bgCarrier" stroke-width="0"/>
<g id="SVGRepo_tracerCarrier" stroke-linecap="round" stroke-linejoin="round"/>
<g id="SVGRepo_iconCarrier"> <g> <path d="M859.649,385.6h-255.2L680.05,310c35.1-35.1,35.1-92.1,0-127.3c-35.101-35.1-92.101-35.1-127.3,0L323.449,412 c-21.6,22.6-32.199,55.3-23.6,85.9c2.3,8.299,5.8,17.5,10.5,24.799c3.9,6,8.4,11.201,13.1,16.602l234.2,234.199 c17.601,17.6,40.601,26.4,63.601,26.4s46.1-8.801,63.6-26.4c35.1-35.1,35.1-92.1,0-127.301l-80.6-80.6h255.1 c49.7,0,90-40.299,90-90C949.35,425.9,909.35,385.6,859.649,385.6z"/> <path d="M96.85,0c-49.7,0-90,40.3-90,90v776.199c0,49.701,40.3,90,90,90s90-40.299,90-90V90C186.85,40.3,146.55,0,96.85,0z"/> </g> </g>
</svg>